<svg xmlns="http://www.w3.org/2000/svg" viewBox="0 0 400 300" width="406" height="306" class="illustration styles_illustrationTablet__1DWOa"><g id="_569_basketball_game_app_outline" data-name="#569_basketball_game_app_outline"><path d="M158.29,185.61v22.95h-65V185.61a33,33,0,0,1,12.43-26.2,27.87,27.87,0,0,1,17.13-5.94h5.92a27.86,27.86,0,0,1,17.12,5.94A33,33,0,0,1,158.29,185.61Z" fill="#ffc9b0"></path><path d="M158.29,209.56h-65a1,1,0,0,1-1-1V185.61a34.15,34.15,0,0,1,12.82-27,28.76,28.76,0,0,1,17.74-6.15h5.92a28.73,28.73,0,0,1,17.73,6.15,34.16,34.16,0,0,1,12.83,27v22.95A1,1,0,0,1,158.29,209.56Zm-64-2h63V185.61a32.15,32.15,0,0,0-12-25.41,26.81,26.81,0,0,0-16.51-5.73h-5.92a26.82,26.82,0,0,0-16.52,5.73,32.14,32.14,0,0,0-12,25.41Z" fill="#093f68"></path><path d="M145.85,159.41v49.15H105.68V159.41a28.43,28.43,0,0,1,7.86-4.32,27.25,27.25,0,0,1,9.27-1.62h5.92a27.3,27.3,0,0,1,9.27,1.62A28.52,28.52,0,0,1,145.85,159.41Z" fill="#68e1fd"></path><path d="M145.85,209.56H105.68a1,1,0,0,1-1-1V159.41a1,1,0,0,1,.39-.79,29.19,29.19,0,0,1,8.13-4.47,28.1,28.1,0,0,1,9.61-1.68h5.92a28.18,28.18,0,0,1,9.61,1.68,29.13,29.13,0,0,1,8.12,4.47,1,1,0,0,1,.39.79v49.15A1,1,0,0,1,145.85,209.56Zm-39.17-2h38.17V159.9a27.38,27.38,0,0,0-7.19-3.87,26.19,26.19,0,0,0-8.93-1.56h-5.92a26.21,26.21,0,0,0-8.94,1.56,27.54,27.54,0,0,0-7.19,3.87Z" fill="#093f68"></path><path d="M138,155.09c-.77,8-6,14.25-12.23,14.25s-11.46-6.22-12.23-14.25a27.25,27.25,0,0,1,9.27-1.62h5.92A27.3,27.3,0,0,1,138,155.09Z" fill="#ffc9b0"></path><path d="M125.77,170.34c-6.71,0-12.4-6.52-13.23-15.16a1,1,0,0,1,.66-1,28.1,28.1,0,0,1,9.61-1.68h5.92a28.18,28.18,0,0,1,9.61,1.68,1,1,0,0,1,.65,1C138.16,163.82,132.48,170.34,125.77,170.34Zm-11.15-14.57c1,7.22,5.67,12.57,11.15,12.57s10.17-5.35,11.14-12.57a26.41,26.41,0,0,0-8.18-1.3h-5.92A26.47,26.47,0,0,0,114.62,155.77Z" fill="#093f68"></path><polyline points="120.98 155.56 120.98 143.87 129.85 143.87 129.85 155.56" fill="#ffc9b0"></polyline><path d="M129.85,156.56a1,1,0,0,1-1-1V144.87H122v10.69a1,1,0,0,1-2,0V143.87a1,1,0,0,1,1-1h8.87a1,1,0,0,1,1,1v11.69A1,1,0,0,1,129.85,156.56Z" fill="#093f68"></path><path d="M124.1,80.81A8.06,8.06,0,0,1,128,85a6.65,6.65,0,0,1,5.66-2.77,7.65,7.65,0,0,1,3.69,1.06c1.06.66,1.65,2,2.71,2.58s2.06.17,3.29.14a17,17,0,0,1,5.14.84,8.34,8.34,0,0,1,4.39,2.45c1.19,1.53,1.12,3.51.87,5.32,5.69-2,7.34,6.77,4.53,10.08a8.75,8.75,0,0,1-1.69,12.8c1.58,1.25,1,3.74.33,5.63-1.32,3.57-1.57,6.81-5.62,7.13-2.14.17-4.36,0-6.5,0H96.26c.86,0-2.34-4.95-2.43-5.16a9.15,9.15,0,0,1-.11-7.17c-3.79-2.82-3.74-9.4.08-12.17a9.8,9.8,0,0,1,5-12.88c-.46-3.19,2-6.26,5-7.49,3.19-1.31,6.37-.75,9.67-.64.8-3,4.52-4.86,7.45-4.74A7.84,7.84,0,0,1,124.1,80.81Z" fill="#725858"></path><path d="M149.13,131.31c-.74,0-1.48,0-2.21,0s-1.43,0-2.13,0H96.26a1,1,0,0,1-.92-1.38,26.13,26.13,0,0,0-2.09-3.78c-.2-.33-.32-.55-.34-.6a10.35,10.35,0,0,1-.38-7.26,9,9,0,0,1,0-12.77A10.89,10.89,0,0,1,97.8,92.22c-.1-3.54,2.66-6.55,5.65-7.78,2.77-1.15,5.51-1,8.16-.82l1.19.07c1.3-3.08,5.12-4.85,8.19-4.71a8.85,8.85,0,0,1,3.56.94,9.26,9.26,0,0,1,3.65,3.28,7.84,7.84,0,0,1,5.47-2,8.67,8.67,0,0,1,4.19,1.21,6.55,6.55,0,0,1,1.56,1.49,4.69,4.69,0,0,0,1.1,1.06,2.55,2.55,0,0,0,1.66.13,9.8,9.8,0,0,1,1.14-.11,17.49,17.49,0,0,1,5.44.88,9.23,9.23,0,0,1,4.9,2.79,6.73,6.73,0,0,1,1.21,4.67,4.69,4.69,0,0,1,4.37,2.15,9.24,9.24,0,0,1,.3,9.15,9.88,9.88,0,0,1-1.5,13c.81,1.34.74,3.28-.19,5.81-.22.59-.41,1.17-.59,1.73-.91,2.82-1.86,5.73-5.89,6C150.63,131.29,149.88,131.31,149.13,131.31Zm-51.89-2.08h47.55c.72,0,1.45,0,2.18,0a39.88,39.88,0,0,0,4.24,0c2.59-.2,3.17-1.66,4.15-4.67.19-.58.39-1.19.61-1.81.59-1.58,1.06-3.65,0-4.5a1,1,0,0,1-.38-.84,1,1,0,0,1,.47-.79,7.76,7.76,0,0,0,1.49-11.27,1,1,0,0,1,0-1.33c1.44-1.7,1.48-5.38.08-7.42a2.79,2.79,0,0,0-3.52-1.07,1,1,0,0,1-1-.17,1,1,0,0,1-.35-.91c.22-1.63.3-3.32-.67-4.57a7.55,7.55,0,0,0-3.89-2.1,15.38,15.38,0,0,0-4.83-.8,8.44,8.44,0,0,0-.92.09,4.32,4.32,0,0,1-2.86-.35,5.85,5.85,0,0,1-1.69-1.54,5.18,5.18,0,0,0-1.08-1.07,6.73,6.73,0,0,0-3.19-.91,5.62,5.62,0,0,0-4.8,2.33,1,1,0,0,1-.93.43,1,1,0,0,1-.83-.62,7.06,7.06,0,0,0-3.4-3.63h0a6.7,6.7,0,0,0-2.74-.73c-2.5-.09-5.78,1.51-6.44,4a1,1,0,0,1-1,.74c-.66,0-1.32-.06-2-.1-2.54-.15-4.93-.3-7.28.67s-4.78,3.59-4.37,6.42a1,1,0,0,1-.63,1.08,8.78,8.78,0,0,0-4.51,11.5,1,1,0,0,1-.31,1.25,6.93,6.93,0,0,0-.08,10.56,1,1,0,0,1,.33,1.19,8.22,8.22,0,0,0,.1,6.38h0A3.55,3.55,0,0,1,95,125,26.64,26.64,0,0,1,97.24,129.23Zm-1,0Z" fill="#093f68"></path><ellipse cx="102.82" cy="127.78" rx="7.9" ry="7.23" fill="#ffc9b0"></ellipse><path d="M102.82,136c-4.9,0-8.89-3.69-8.89-8.22s4-8.23,8.89-8.23,8.9,3.69,8.9,8.23S107.73,136,102.82,136Zm0-14.45c-3.8,0-6.89,2.79-6.89,6.23S99,134,102.82,134s6.9-2.79,6.9-6.22S106.63,121.55,102.82,121.55Z" fill="#093f68"></path><ellipse cx="148.86" cy="127.78" rx="7.9" ry="7.23" fill="#ffc9b0"></ellipse><path d="M148.86,136c-4.9,0-8.89-3.69-8.89-8.22s4-8.23,8.89-8.23,8.9,3.69,8.9,8.23S153.77,136,148.86,136Zm0-14.45c-3.8,0-6.89,2.79-6.89,6.23s3.09,6.22,6.89,6.22,6.9-2.79,6.9-6.22S152.67,121.55,148.86,121.55Z" fill="#093f68"></path><path d="M126.07,151.33a25.29,25.29,0,0,1-24.65-19.57c-1.08-4.68-.63-8.82-.18-13.59a6.6,6.6,0,0,1,.6-2.6c-.27.49,5.29-.72,5.85-1a7.6,7.6,0,0,0,3.88-6c1.53,1.49,4.1,1.43,6,.37a12.43,12.43,0,0,0,4.2-4.74,7.15,7.15,0,0,0,5.32,4.86,7.43,7.43,0,0,0,6.76-2.32c-.1,2.79,1.92,4.79,4.78,5a6.14,6.14,0,0,0,5.55-2.64,6.12,6.12,0,0,0,7.54,5.64,54.48,54.48,0,0,1,.31,6.11c-.14,1.72-.63,3.42-.63,5.19A25.29,25.29,0,0,1,126.07,151.33Z" fill="#ffc9b0"></path><path d="M126.07,152.33A26.3,26.3,0,0,1,100.45,132c-1.08-4.63-.7-8.64-.27-13.29l.06-.62a7.47,7.47,0,0,1,.72-3,1,1,0,0,1,1.34-.42,29.06,29.06,0,0,0,4.93-1,6.58,6.58,0,0,0,3.34-5.17,1,1,0,0,1,.64-.87,1,1,0,0,1,1.05.22c1.24,1.2,3.38,1,4.77.21a11.52,11.52,0,0,0,3.83-4.37,1,1,0,0,1,1.83.21,6.14,6.14,0,0,0,4.56,4.17,6.42,6.42,0,0,0,5.85-2,1,1,0,0,1,1.11-.22,1,1,0,0,1,.6,1c-.08,2.18,1.48,3.79,3.87,4a5.17,5.17,0,0,0,4.63-2.21,1,1,0,0,1,1.83.51,5.11,5.11,0,0,0,6.31,4.71,1,1,0,0,1,.84.18,1,1,0,0,1,.39.76c0,.72.1,1.45.16,2.18a22.73,22.73,0,0,1,.15,4.05c-.06.76-.19,1.5-.31,2.21a18.37,18.37,0,0,0-.32,2.9A26.32,26.32,0,0,1,126.07,152.33Zm-23.6-35.66a10.15,10.15,0,0,0-.24,1.59l0,.62c-.42,4.47-.78,8.33.22,12.65a24.24,24.24,0,0,0,4.81,9.83A24.3,24.3,0,0,0,150.36,126a19.59,19.59,0,0,1,.35-3.22c.12-.71.23-1.38.28-2a21.33,21.33,0,0,0-.14-3.71c0-.39-.07-.78-.1-1.17a7.1,7.1,0,0,1-7.19-4.7,7.14,7.14,0,0,1-5.05,1.55,6,6,0,0,1-5.45-4.1,8.05,8.05,0,0,1-6.21,1.36,8.21,8.21,0,0,1-5.26-3.74,11.06,11.06,0,0,1-3.57,3.5,6.61,6.61,0,0,1-5.73.45,8.89,8.89,0,0,1-4.09,5.18,20.42,20.42,0,0,1-3.32.9A18.38,18.38,0,0,1,102.47,116.67Z" fill="#093f68"></path><path d="M126,137.23a15.1,15.1,0,0,1-2.33-.19,1,1,0,0,1-.81-1.16,1,1,0,0,1,1.15-.81,10.9,10.9,0,0,0,3.17.07,17.61,17.61,0,0,0-1.95-5.18A1,1,0,0,1,127,129c1,2,2.69,5.58,2,7.12a1.48,1.48,0,0,1-1,.87A8.2,8.2,0,0,1,126,137.23Z" fill="#093f68"></path><path d="M128.58,183.06v0h-12v-5.11h19v4.63l-9.37,16h-7.11Z" fill="#093f68"></path><circle cx="114.58" cy="126.84" r="2.02" fill="#093f68"></circle><circle cx="137.39" cy="126.84" r="2.02" fill="#093f68"></circle><path d="M120.42,120.8h-.11l-9.63-.53a2,2,0,1,1,.22-4l9.63.52a2,2,0,0,1-.11,4Z" fill="#093f68"></path><path d="M132.36,120.8a2,2,0,0,1-.11-4l9.63-.52a2,2,0,1,1,.22,4l-9.63.53Z" fill="#093f68"></path><path d="M125.89,144.2a12.42,12.42,0,0,1-4.81-.92,10.63,10.63,0,0,1-4.28-3.1,1,1,0,0,1,1.6-1.2h0c.19.26,4.75,6.08,14.53,1.45a1,1,0,0,1,.86,1.81A18.39,18.39,0,0,1,125.89,144.2Z" fill="#093f68"></path><path d="M234.2,197.07v23h-65v-23a33,33,0,0,1,12.44-26.2,27.84,27.84,0,0,1,17.12-5.94h5.92a27.89,27.89,0,0,1,17.13,5.94A33,33,0,0,1,234.2,197.07Z" fill="#e28362"></path><path d="M234.2,221h-65a1,1,0,0,1-1-1v-23a34.18,34.18,0,0,1,12.82-27,28.84,28.84,0,0,1,17.74-6.15h5.92a28.82,28.82,0,0,1,17.74,6.15,34.15,34.15,0,0,1,12.82,27v23A1,1,0,0,1,234.2,221Zm-64-2h63v-22a32.11,32.11,0,0,0-12-25.4,26.78,26.78,0,0,0-16.51-5.74h-5.92a26.82,26.82,0,0,0-16.51,5.74,32.14,32.14,0,0,0-12.05,25.4Z" fill="#093f68"></path><path d="M221.77,170.87V220H181.6V170.87a28.52,28.52,0,0,1,7.85-4.32,27.25,27.25,0,0,1,9.27-1.62h5.92a27.25,27.25,0,0,1,9.27,1.62A28.58,28.58,0,0,1,221.77,170.87Z" fill="#68e1fd"></path><path d="M221.77,221H181.6a1,1,0,0,1-1-1V170.87a1,1,0,0,1,.38-.79,29.85,29.85,0,0,1,8.13-4.47,28.43,28.43,0,0,1,9.61-1.68h5.92a28.38,28.38,0,0,1,9.61,1.68,29.71,29.71,0,0,1,8.13,4.47,1,1,0,0,1,.39.79V220A1,1,0,0,1,221.77,221Zm-39.17-2h38.17V171.37a27.54,27.54,0,0,0-7.19-3.87,26.26,26.26,0,0,0-8.94-1.57h-5.92a26.44,26.44,0,0,0-8.93,1.56,27.71,27.71,0,0,0-7.19,3.88Z" fill="#093f68"></path><path d="M213.91,166.55c-.77,8-6,14.25-12.23,14.25s-11.46-6.22-12.23-14.25a27.25,27.25,0,0,1,9.27-1.62h5.92A27.25,27.25,0,0,1,213.91,166.55Z" fill="#e28362"></path><path d="M201.68,181.8c-6.71,0-12.39-6.51-13.23-15.15a1,1,0,0,1,.66-1,28.43,28.43,0,0,1,9.61-1.68h5.92a28.38,28.38,0,0,1,9.61,1.68,1,1,0,0,1,.66,1C214.08,175.29,208.39,181.8,201.68,181.8Zm-11.14-14.56c1,7.22,5.66,12.56,11.14,12.56s10.17-5.34,11.15-12.56a26.19,26.19,0,0,0-8.19-1.31h-5.92A26.08,26.08,0,0,0,190.54,167.24Z" fill="#093f68"></path><polyline points="196.89 167.02 196.89 155.34 205.77 155.34 205.77 167.02" fill="#e28362"></polyline><path d="M205.77,168a1,1,0,0,1-1-1V156.34h-6.88V167a1,1,0,0,1-2,0V155.34a1,1,0,0,1,1-1h8.88a1,1,0,0,1,1,1V167A1,1,0,0,1,205.77,168Z" fill="#093f68"></path><ellipse cx="226.01" cy="131.97" rx="6.36" ry="7.61" fill="#e28362"></ellipse><path d="M226,140.58c-4.06,0-7.37-3.86-7.37-8.61s3.31-8.61,7.37-8.61,7.36,3.86,7.36,8.61S230.07,140.58,226,140.58Zm0-15.22c-3,0-5.37,3-5.37,6.61s2.41,6.61,5.37,6.61,5.36-3,5.36-6.61S229,125.36,226,125.36Z" fill="#093f68"></path><ellipse cx="177.35" cy="131.97" rx="6.36" ry="7.61" fill="#e28362"></ellipse><path d="M177.35,140.58c-4.06,0-7.36-3.86-7.36-8.61s3.3-8.61,7.36-8.61,7.37,3.86,7.37,8.61S181.41,140.58,177.35,140.58Zm0-15.22c-2.95,0-5.36,3-5.36,6.61s2.41,6.61,5.36,6.61,5.37-3,5.37-6.61S180.31,125.36,177.35,125.36Z" fill="#093f68"></path><path d="M200,95.35h3.29a20.88,20.88,0,0,1,20.88,20.88v14.06a0,0,0,0,1,0,0H179.12a0,0,0,0,1,0,0V116.23A20.88,20.88,0,0,1,200,95.35Z" fill="#725858"></path><path d="M224.17,131.29h-45a1,1,0,0,1-1-1V116.23A21.9,21.9,0,0,1,200,94.35h3.29a21.9,21.9,0,0,1,21.88,21.88v14.06A1,1,0,0,1,224.17,131.29Zm-44-2h43V116.23a19.9,19.9,0,0,0-19.88-19.88H200a19.9,19.9,0,0,0-19.88,19.88Z" fill="#093f68"></path><path d="M224.24,124.53v16.05a22.56,22.56,0,0,1-22.56,22.56h0a22.56,22.56,0,0,1-22.56-22.56V124.53c0-25.17,9.36-7.54,22.56-7.54S224.24,99.36,224.24,124.53Z" fill="#e28362"></path><path d="M201.68,164.14a23.59,23.59,0,0,1-23.56-23.56V124.53c0-8.34,1-12.52,3.35-14s5.31.07,8.77,1.81,7.2,3.62,11.44,3.62,8.07-1.92,11.44-3.62,6.45-3.24,8.77-1.81,3.35,5.63,3.35,14v16.05A23.59,23.59,0,0,1,201.68,164.14ZM183.6,112a2.11,2.11,0,0,0-1.08.27c-1.62,1-2.4,5-2.4,12.27v16.05a21.56,21.56,0,0,0,43.12,0V124.53c0-7.26-.78-11.27-2.4-12.27-1.37-.84-3.89.43-6.82,1.9-3.4,1.71-7.62,3.83-12.34,3.83s-8.94-2.12-12.34-3.83C187.06,113,185,112,183.6,112Z" fill="#093f68"></path><path d="M224.24,134.75v5.83a22.56,22.56,0,1,1-45.12,0v-5.83a22.49,22.49,0,0,0,6.61,15.95,22.11,22.11,0,0,0,4.91,3.73c1.18-3.92,5.74-8.5,11-8.5s9.86,4.58,11,8.5A22.54,22.54,0,0,0,224.24,134.75Z" fill="#093f68"></path><path d="M201.68,164.15a23.58,23.58,0,0,1-23.56-23.57v-5.83a1,1,0,0,1,2,0A21.37,21.37,0,0,0,186.44,150a21,21,0,0,0,3.68,3c1.78-4.06,6.37-8,11.56-8s9.78,4,11.56,8a21.62,21.62,0,0,0,10-18.21,1,1,0,0,1,2,0v5.83A23.6,23.6,0,0,1,201.68,164.15Zm-21-18.73a21.56,21.56,0,0,0,42,0,23.49,23.49,0,0,1-9.49,9.92,1,1,0,0,1-1.45-.58c-1.13-3.76-5.45-7.79-10.08-7.79s-9,4-10.08,7.79a1,1,0,0,1-.58.64,1,1,0,0,1-.87-.06,23.14,23.14,0,0,1-5.13-3.89A23.94,23.94,0,0,1,180.66,145.42Z" fill="#093f68"></path><path d="M202.92,143.67a5.91,5.91,0,0,1-4-1.66,1,1,0,0,1,1.44-1.38,3.79,3.79,0,0,0,3.78.83c.63-.63-.69-5.45-3.35-10.72a1,1,0,0,1,.44-1.35,1,1,0,0,1,1.34.45c.79,1.55,4.63,9.43,3.46,12.31a2.06,2.06,0,0,1-1.25,1.2A5.6,5.6,0,0,1,202.92,143.67Z" fill="#093f68"></path><path d="M195.64,198.75v-.06c-1.87-1-2.83-2.35-2.83-3.86,0-3.6,3.6-5.74,8.89-5.74s8.82,2.14,8.82,5.74c0,1.54-1,2.82-2.82,3.86v.06a5.56,5.56,0,0,1,4.18,5.2c.09,3.65-4.66,6.38-10.18,6.32s-10.31-2.67-10.22-6.32A5.6,5.6,0,0,1,195.64,198.75ZM201.7,201c-2.53,0-4.1.77-4.1,2s1.57,2.07,4.1,2.07,4.07-.74,4.07-2.07S204.19,201,201.7,201Zm0-7.82c-2,0-3.18.69-3.18,1.9s1.25,1.82,3.18,1.82,3.14-.75,3.14-1.82S203.63,193.22,201.7,193.22Z" fill="#093f68"></path><circle cx="190.56" cy="131.08" r="2.02" fill="#093f68"></circle><circle cx="213.37" cy="131.08" r="2.02" fill="#093f68"></circle><path d="M196.41,125.05h-.11l-9.64-.53a2,2,0,0,1-1.89-2.1,2,2,0,0,1,2.11-1.89l9.63.53a2,2,0,0,1-.1,4Z" fill="#093f68"></path><path d="M208.34,125.05a2,2,0,0,1-.1-4l9.63-.53a2,2,0,0,1,.22,4l-9.64.53Z" fill="#093f68"></path><path d="M207.93,153.3c0,1.64-2.8,4.45-6.25,4.45s-6.25-2.81-6.25-4.45,2.8-1.27,6.25-1.27S207.93,151.66,207.93,153.3Z" fill="#ffc9b0"></path><path d="M201.68,158.75c-4,0-7.25-3.3-7.25-5.45a2,2,0,0,1,.58-1.44c.94-.92,2.67-.89,5.07-.85,1,0,2.18,0,3.21,0,2.4,0,4.12-.07,5.06.85a2,2,0,0,1,.58,1.44C208.93,155.45,205.68,158.75,201.68,158.75ZM198.82,153a5.48,5.48,0,0,0-2.4.28c0,1,2.28,3.47,5.26,3.47s5.25-2.45,5.25-3.45v-.05c-.31-.3-2.29-.26-3.61-.24-1,0-2.23,0-3.28,0Z" fill="#093f68"></path><rect x="176.67" y="109.99" width="49.34" height="8.56" fill="#fff"></rect><path d="M226,119.55H176.67a1,1,0,0,1-1-1V110a1,1,0,0,1,1-1H226a1,1,0,0,1,1,1v8.56A1,1,0,0,1,226,119.55Zm-48.34-2H225V111H177.67Z" fill="#093f68"></path><path d="M309.09,187.3v22.95h-65V187.3a33,33,0,0,1,12.44-26.2,27.86,27.86,0,0,1,17.12-5.94h5.93a27.86,27.86,0,0,1,17.12,5.94A33,33,0,0,1,309.09,187.3Z" fill="#ffc9b0"></path><path d="M309.09,211.25h-65a1,1,0,0,1-1-1V187.3a34.16,34.16,0,0,1,12.83-27,28.79,28.79,0,0,1,17.73-6.15h5.93a28.79,28.79,0,0,1,17.73,6.15,34.15,34.15,0,0,1,12.82,27v22.95A1,1,0,0,1,309.09,211.25Zm-64-2h63V187.3a32.17,32.17,0,0,0-12-25.41,26.81,26.81,0,0,0-16.51-5.73h-5.93a26.87,26.87,0,0,0-16.51,5.73,32.17,32.17,0,0,0-12.05,25.41Z" fill="#093f68"></path><path d="M296.66,161.1v49.15H256.49V161.1a28.52,28.52,0,0,1,7.85-4.32,27.34,27.34,0,0,1,9.27-1.62h5.93a27.34,27.34,0,0,1,9.27,1.62A28.52,28.52,0,0,1,296.66,161.1Z" fill="#68e1fd"></path><path d="M296.66,211.25H256.49a1,1,0,0,1-1-1V161.1a1,1,0,0,1,.39-.79,29.44,29.44,0,0,1,8.13-4.47,28.33,28.33,0,0,1,9.6-1.68h5.93a28.33,28.33,0,0,1,9.6,1.68,29.44,29.44,0,0,1,8.13,4.47,1,1,0,0,1,.39.79v49.15A1,1,0,0,1,296.66,211.25Zm-39.17-2h38.17V161.6a27.25,27.25,0,0,0-7.19-3.87,26.25,26.25,0,0,0-8.93-1.57h-5.93a26.44,26.44,0,0,0-8.93,1.56,27.42,27.42,0,0,0-7.19,3.88Z" fill="#093f68"></path><path d="M288.81,156.78c-.78,8-6,14.25-12.24,14.25s-11.46-6.22-12.23-14.25a27.34,27.34,0,0,1,9.27-1.62h5.93A27.34,27.34,0,0,1,288.81,156.78Z" fill="#ffc9b0"></path><path d="M276.57,172c-6.7,0-12.39-6.51-13.22-15.15a1,1,0,0,1,.65-1,28.43,28.43,0,0,1,9.61-1.68h5.93a28.33,28.33,0,0,1,9.6,1.68,1,1,0,0,1,.66,1C289,165.52,283.28,172,276.57,172Zm-11.14-14.56c1,7.21,5.67,12.56,11.14,12.56s10.17-5.35,11.15-12.56a26.17,26.17,0,0,0-8.18-1.31h-5.93A26.17,26.17,0,0,0,265.43,157.47Z" fill="#093f68"></path><polyline points="271.79 157.25 271.79 145.57 280.66 145.57 280.66 157.25" fill="#ffc9b0"></polyline><path d="M280.66,158.25a1,1,0,0,1-1-1V146.57h-6.87v10.68a1,1,0,0,1-2,0V145.57a1,1,0,0,1,1-1h8.87a1,1,0,0,1,1,1v11.68A1,1,0,0,1,280.66,158.25Z" fill="#093f68"></path><path d="M273.85,87.56a19.12,19.12,0,0,1,3.12-.24c4.81,0,9.73-.13,14.13,2A26.74,26.74,0,0,1,306,113.16V132.9H247.22c-.34-1.16.18-2.53.23-3.69a15.55,15.55,0,0,0-.57-3.81,53.64,53.64,0,0,1-1.16-9.78,38.18,38.18,0,0,1,3.17-15.05c1.17-2.86,2.55-5.82,5.07-7.6s6.52-1.84,8.32.67A20.07,20.07,0,0,1,273.85,87.56Z" fill="#725858"></path><path d="M306,133.9H247.22a1,1,0,0,1-1-.73,6.3,6.3,0,0,1,0-2.87,8.6,8.6,0,0,0,.15-1.13,10.46,10.46,0,0,0-.37-2.72l-.18-.85a54.85,54.85,0,0,1-1.18-10A38.69,38.69,0,0,1,248,100.19c1.17-2.87,2.66-6.09,5.42-8,2.54-1.8,6.54-2.09,8.92,0a21,21,0,0,1,11.38-5.62h0a20.89,20.89,0,0,1,3.24-.25h.9c4.6,0,9.36,0,13.71,2.12A27.68,27.68,0,0,1,307,113.16V132.9A1,1,0,0,1,306,133.9Zm-57.86-2H305V113.16a25.65,25.65,0,0,0-14.31-22.92c-3.93-1.92-8.45-1.92-12.83-1.92H277a18.18,18.18,0,0,0-3,.23,19,19,0,0,0-11,5.77,1,1,0,0,1-.79.32,1,1,0,0,1-.75-.41c-1.45-2-4.85-1.91-6.93-.44-2.32,1.64-3.61,4.43-4.72,7.16a37,37,0,0,0-3.1,14.65,53.37,53.37,0,0,0,1.14,9.6l.18.82a12.5,12.5,0,0,1,.41,3.24,10.63,10.63,0,0,1-.18,1.38A10.34,10.34,0,0,0,248.11,131.9Z" fill="#093f68"></path><ellipse cx="252.2" cy="130.52" rx="8.15" ry="7.02" fill="#ffc9b0"></ellipse><path d="M252.2,138.54c-5,0-9.15-3.6-9.15-8s4.11-8,9.15-8,9.15,3.59,9.15,8S257.24,138.54,252.2,138.54Zm0-14c-3.94,0-7.15,2.7-7.15,6s3.21,6,7.15,6,7.15-2.71,7.15-6S256.14,124.5,252.2,124.5Z" fill="#093f68"></path><ellipse cx="299.69" cy="130.52" rx="8.15" ry="7.02" fill="#ffc9b0"></ellipse><path d="M299.69,138.54c-5,0-9.14-3.6-9.14-8s4.1-8,9.14-8,9.15,3.59,9.15,8S304.73,138.54,299.69,138.54Zm0-14c-3.94,0-7.14,2.7-7.14,6s3.2,6,7.14,6,7.15-2.71,7.15-6S303.63,124.5,299.69,124.5Z" fill="#093f68"></path><path d="M276.16,153.39h0a24.56,24.56,0,0,1-24.57-24.56V115.6s6.19-3.53,8-9.09c0,0,11.74,4.45,18.54,4.43a52.92,52.92,0,0,0,22.57-4.86v22.75A24.56,24.56,0,0,1,276.16,153.39Z" fill="#ffc9b0"></path><path d="M276.16,154.39a25.6,25.6,0,0,1-25.57-25.56V115.6a1,1,0,0,1,.51-.87c.06,0,5.87-3.41,7.57-8.53a1,1,0,0,1,.52-.59,1,1,0,0,1,.78,0c.12.05,11.61,4.37,18.15,4.37h0a52.44,52.44,0,0,0,22.11-4.75,1,1,0,0,1,1.46.89v22.75A25.6,25.6,0,0,1,276.16,154.39Zm-23.57-38.23v12.67a23.57,23.57,0,0,0,47.14,0V107.65a55.91,55.91,0,0,1-21.57,4.29h0c-5.85,0-15-3.09-17.92-4.15C258.31,112.22,254.06,115.22,252.59,116.16Z" fill="#093f68"></path><path d="M277.72,143.38c-5.23,0-10.79-2.85-11.12-3a1,1,0,0,1-.42-1.35,1,1,0,0,1,1.34-.42c.11,0,10.42,5.32,15,1.28a1,1,0,1,1,1.33,1.49A9,9,0,0,1,277.72,143.38Z" fill="#093f68"></path><path d="M276.66,135.89a4.23,4.23,0,0,1-2.06-.41,1,1,0,0,1,1-1.73h0a5,5,0,0,0,2.9-.11c.1,0,.1,0,.12-.07.28-.71-.73-3.12-1.82-4.84a1,1,0,0,1,.31-1.38,1,1,0,0,1,1.38.31c.67,1.06,2.79,4.66,2,6.66a2.08,2.08,0,0,1-1.5,1.27A10.28,10.28,0,0,1,276.66,135.89Z" fill="#093f68"></path><circle cx="264.93" cy="124.84" r="2.1" fill="#093f68"></circle><circle cx="288.59" cy="124.84" r="2.1" fill="#093f68"></circle><path d="M271,118.5h-.11l-10-.55a2,2,0,1,1,.22-4l10,.55a2,2,0,0,1-.11,4Z" fill="#093f68"></path><path d="M283.38,118.5a2,2,0,0,1-.11-4l10-.55a2,2,0,1,1,.22,4l-10,.55Z" fill="#093f68"></path><path d="M275.14,193.59v3.35H262.7v-2.28a4,4,0,0,1,1.07-2.94,7.83,7.83,0,0,1,4.09-2.14c3-.77,3.53-1.17,3.53-2.08,0-.74-.75-1.27-2.1-1.27a2.89,2.89,0,0,0-3.1,2.48l-3.75-.38c.28-3.19,3.1-5.34,6.85-5.34,3.55,0,6,1.89,6,4.41s-1.47,3.71-4.78,4.66a3.92,3.92,0,0,0-.48.14,13.55,13.55,0,0,0-2.66.89,1,1,0,0,0-.45.5Z" fill="#093f68"></path><path d="M289.31,193.59v3.35H276.87v-2.28a4,4,0,0,1,1.07-2.94,7.83,7.83,0,0,1,4.09-2.14c3-.77,3.53-1.17,3.53-2.08,0-.74-.75-1.27-2.1-1.27a2.89,2.89,0,0,0-3.1,2.48l-3.75-.38c.28-3.19,3.1-5.34,6.85-5.34,3.55,0,6,1.89,6,4.41s-1.47,3.71-4.78,4.66a3.92,3.92,0,0,0-.48.14,13.55,13.55,0,0,0-2.66.89,1,1,0,0,0-.45.5Z" fill="#093f68"></path></g></svg>