<svg id="Layer_2" data-name="Layer 2" xmlns="http://www.w3.org/2000/svg" xmlns:xlink="http://www.w3.org/1999/xlink" viewBox="0 0 400 300" width="406" height="306" class="illustration styles_illustrationTablet__1DWOa"><defs><linearGradient id="linear-gradient" x1="358.9" y1="193.35" x2="335.33" y2="158.58" gradientUnits="userSpaceOnUse"><stop offset="0" stop-color="#2a8178"></stop><stop offset="1" stop-color="#0f2d2a"></stop></linearGradient><linearGradient id="linear-gradient-2" x1="264.79" y1="244.09" x2="244.53" y2="214.19" xlink:href="#linear-gradient"></linearGradient><linearGradient id="linear-gradient-3" x1="142.23" y1="208.4" x2="154" y2="191.66" gradientTransform="matrix(-1, 0, 0, 1, 348.57, 0)" gradientUnits="userSpaceOnUse"><stop offset="0" stop-color="#fff" stop-opacity="0"></stop><stop offset="1" stop-color="#17619e"></stop></linearGradient></defs><title>PP</title><path d="M194.28,289.28,14.56,183.06c-5.72-3.21-10.63-8.49-5.05-11.94l180.37-104c2.71-1.68,6.82-2.78,9.57-1.18L388.11,175.48c5.72,3.32,6.75,12.6,1,15.93L218,289.11A23.9,23.9,0,0,1,194.28,289.28Z" fill="#2a8178"></path><path d="M344.29,152.57l-37.06,21.55L353.59,204l35.83-22.66C377.39,172.66,356.53,161,344.29,152.57Z" fill="url(#linear-gradient)"></path><polyline points="172.48 260.01 210.55 284.57 343.81 208.56 301.56 184.96" fill="url(#linear-gradient-2)"></polyline><polyline points="303.79 188.49 303.79 192.37 301.83 194.77" fill="#adcee1"></polyline><path d="M225.77,141.22l75.79,47a4.7,4.7,0,0,1-.16,8.08l-115,65.05a10.53,10.53,0,0,1-10.52-.09l-75.45-44.35c-5.48-4.5-5.07-13,0-13.34L214.82,141A10.69,10.69,0,0,1,225.77,141.22Z" fill="#88d3d8"></path><path d="M225.77,138l75.79,47a4.7,4.7,0,0,1-.16,8.08l-115,65.05a10.53,10.53,0,0,1-10.52-.09l-75.45-44.35a5.84,5.84,0,0,1,0-10.1L214.82,137.8A10.69,10.69,0,0,1,225.77,138Z" fill="#fff"></path><path d="M222.68,131.56S191.21,30,191.41,30s-1-4.51-6.61-2L64,99.11s-5.86,2.37-4.71,7.83,30.77,99.4,30.77,99.4a5.1,5.1,0,0,0,5.71,2c3.68-1.14,124.08-71.08,124.08-71.08A4.62,4.62,0,0,0,222.68,131.56Z" fill="#053855"></path><polygon points="189.4 37.37 65.71 109.47 91.36 195.61 216.65 125.64 189.4 37.37" fill="#68e1fd"></polygon><path d="M230.43,148.75,258.14,166a3.34,3.34,0,0,1-.11,5.74l-99.46,56.7a9.79,9.79,0,0,1-9.78,0c-6.4-3.73-17.4-10.44-24.14-14.57a4.07,4.07,0,0,1,.08-7c20.12-11.7,85.75-49.87,100.11-58.2A5.41,5.41,0,0,1,230.43,148.75Z" fill="#68e1fd"></path><path d="M228.94,195.61l-34.75,19.54a3.47,3.47,0,0,0-.05,6l20.43,12a4.61,4.61,0,0,0,4.62,0l35.56-20.27a2.9,2.9,0,0,0,0-5L233.5,195.63A4.61,4.61,0,0,0,228.94,195.61Z" fill="#68e1fd"></path><path d="M230.43,148.75,258.14,166a3.34,3.34,0,0,1-.11,5.74l-99.46,56.7a9.79,9.79,0,0,1-9.78,0c-6.4-3.73-17.4-10.44-24.14-14.57a4.07,4.07,0,0,1,.08-7c20.12-11.7,85.75-49.87,100.11-58.2A5.41,5.41,0,0,1,230.43,148.75Z" fill="#053855" opacity="0.1"></path><path d="M228.94,195.61l-34.75,19.54a3.47,3.47,0,0,0-.05,6l20.43,12a4.61,4.61,0,0,0,4.62,0l35.56-20.27a2.9,2.9,0,0,0,0-5L233.5,195.63A4.61,4.61,0,0,0,228.94,195.61Z" fill="#053855" opacity="0.1"></path><polyline points="168.2 191.75 206.28 216.31 228.08 201.73 189.07 182.41" opacity="0.32" fill="url(#linear-gradient-3)"></polyline><path d="M99.77,114.18a6.3,6.3,0,0,1,1.31,2.49,1.6,1.6,0,0,1-.05,1,1.23,1.23,0,0,1-.54.66L95.54,121a2.78,2.78,0,0,0,1.38,1.5,1.83,1.83,0,0,0,1.66-.09,3.43,3.43,0,0,0,.92-.67,3.49,3.49,0,0,0,.45-.64l.21-.38a1.26,1.26,0,0,1,.45-.47.58.58,0,0,1,.63,0,1,1,0,0,1,.44.62,1.9,1.9,0,0,1-.13,1.26,5.43,5.43,0,0,1-.89,1.43,4.84,4.84,0,0,1-1.33,1.11,3.5,3.5,0,0,1-2.41.46,3.56,3.56,0,0,1-2-1.25,7,7,0,0,1-1.34-2.65,9.43,9.43,0,0,1-.36-3.48,7.08,7.08,0,0,1,.82-2.87,4.34,4.34,0,0,1,1.69-1.76,2.75,2.75,0,0,1,2.09-.25A4,4,0,0,1,99.77,114.18Zm-.88,2.57,0-.15a2,2,0,0,0-1-1.19,1.54,1.54,0,0,0-1.44.06c-1.16.63-1.63,1.77-1.4,3.42l3.93-2.14" fill="#2c6e8c"></path><path d="M93.56,125.71a1.35,1.35,0,0,1,.28.51,1.62,1.62,0,0,1,0,.79,1.13,1.13,0,0,1-.59.75,1.11,1.11,0,0,1-.73.13c-.88-.19-1.58-1.17-2.08-2.94a1.52,1.52,0,0,0-.69-1,1.16,1.16,0,0,0-1.14.1l-2.81,1.53L87,129.67a2,2,0,0,1,0,1,1,1,0,0,1-.48.68.93.93,0,0,1-.86,0,1.08,1.08,0,0,1-.58-.75L81.65,118.5a1.79,1.79,0,0,1,0-1.06,1.18,1.18,0,0,1,.55-.72l4.32-2.35a2.19,2.19,0,0,1,1.64-.21,3.1,3.1,0,0,1,1.57,1,5.36,5.36,0,0,1,1.07,2.09,6.13,6.13,0,0,1,.18,2.28,6,6,0,0,1-.6,2.17,2.85,2.85,0,0,1,1.74,1.92,3.86,3.86,0,0,1,.23.63,8.37,8.37,0,0,0,.39.88.53.53,0,0,0,.39.29A.84.84,0,0,1,93.56,125.71Zm-4.49-5.92a5.31,5.31,0,0,0-.21-1.38,3.12,3.12,0,0,0-.47-1,1.75,1.75,0,0,0-.65-.56.66.66,0,0,0-.61,0l-3.28,1.79,1.36,4.78,3.28-1.79a1,1,0,0,0,.43-.64,4,4,0,0,0,.15-1.2" fill="#2c6e8c"></path><path d="M115.69,105.52A6.21,6.21,0,0,1,117,108a1.6,1.6,0,0,1-.05,1,1.21,1.21,0,0,1-.54.66l-4.95,2.69a2.78,2.78,0,0,0,1.38,1.5,1.82,1.82,0,0,0,1.65-.08,3.4,3.4,0,0,0,.92-.67,3.31,3.31,0,0,0,.45-.64l.21-.39a1.24,1.24,0,0,1,.45-.47.57.57,0,0,1,.63,0,1,1,0,0,1,.44.62,1.89,1.89,0,0,1-.12,1.26,5.37,5.37,0,0,1-.89,1.44,4.8,4.8,0,0,1-1.33,1.11,3.52,3.52,0,0,1-2.41.46,3.58,3.58,0,0,1-2-1.25,6.86,6.86,0,0,1-1.34-2.65,9.55,9.55,0,0,1-.37-3.47,7.1,7.1,0,0,1,.83-2.87,4.32,4.32,0,0,1,1.68-1.76,2.74,2.74,0,0,1,2.09-.25A4,4,0,0,1,115.69,105.52Zm-.88,2.57,0-.15a2,2,0,0,0-1-1.19,1.54,1.54,0,0,0-1.44.06q-1.74.94-1.4,3.42l3.93-2.14" fill="#2c6e8c"></path><path d="M103.61,108.85a3.52,3.52,0,0,1,1.65-.43,2.3,2.3,0,0,1,1.54.53,1.23,1.23,0,0,1,.41.65,1.42,1.42,0,0,1-.06,1,1,1,0,0,1-.42.49.57.57,0,0,1-.62,0,1.64,1.64,0,0,0-.91-.36,1.92,1.92,0,0,0-1,.26,1.42,1.42,0,0,0-.81,1.78,1,1,0,0,0,.42.63,1.19,1.19,0,0,0,.66.16c.24,0,.59,0,1-.11a8.21,8.21,0,0,1,1.54-.08,2.09,2.09,0,0,1,1.21.54,3.3,3.3,0,0,1,.9,1.63,4.23,4.23,0,0,1,.08,2,4.63,4.63,0,0,1-.78,1.77,4,4,0,0,1-1.29,1.17,4.08,4.08,0,0,1-2,.54,2.68,2.68,0,0,1-1.82-.74,1.12,1.12,0,0,1-.32-.55,1.57,1.57,0,0,1,.13-1.15.93.93,0,0,1,.38-.42.68.68,0,0,1,.72.08,2.78,2.78,0,0,0,1.21.46,2.25,2.25,0,0,0,1.27-.32,1.55,1.55,0,0,0,.81-1.89.88.88,0,0,0-.66-.71,4.42,4.42,0,0,0-1.42,0,8.19,8.19,0,0,1-1.61.09,2.16,2.16,0,0,1-1.23-.51,3.07,3.07,0,0,1-.92-1.63,4.16,4.16,0,0,1-.09-2,4.67,4.67,0,0,1,.75-1.75A4,4,0,0,1,103.61,108.85Z" fill="#2c6e8c"></path><path d="M140,84.33a.7.7,0,0,1,.75,0,1.33,1.33,0,0,1,.52.78l1.32,4.66a6.54,6.54,0,0,1,.66-1.86,3.1,3.1,0,0,1,1.23-1.29,1.84,1.84,0,0,1,2.42.16A7.7,7.7,0,0,1,148.44,90l1.53,5.4a1.84,1.84,0,0,1,0,1.06,1.14,1.14,0,0,1-.54.72.69.69,0,0,1-.75,0,1.28,1.28,0,0,1-.52-.78L146.64,91a3.66,3.66,0,0,0-.84-1.65,1,1,0,0,0-1.32,0,2.23,2.23,0,0,0-1.11,1.42,3.67,3.67,0,0,0,0,2l1.53,5.4a1.89,1.89,0,0,1,0,1.06,1.16,1.16,0,0,1-.54.72.69.69,0,0,1-.75,0,1.28,1.28,0,0,1-.52-.78l-3.7-13a1.86,1.86,0,0,1,0-1.06A1.14,1.14,0,0,1,140,84.33Z" fill="#2c6e8c"></path><path d="M136,91.24a3.7,3.7,0,0,1,2.22-.56,1.36,1.36,0,0,1,1.2,1.06,2,2,0,0,1,0,.92.89.89,0,0,1-.42.62.82.82,0,0,1-.41.12,1.36,1.36,0,0,1-.36-.09,2,2,0,0,0-.36-.12,1.55,1.55,0,0,0-.49.06,1.91,1.91,0,0,0-.5.17,3,3,0,0,0-1.48,1.94,5.36,5.36,0,0,0,.09,2.91,3.77,3.77,0,0,0,1.36,2.17,1.7,1.7,0,0,0,1.93.1,2.74,2.74,0,0,0,1-.85,2.38,2.38,0,0,0,.18-.35,2.7,2.7,0,0,1,.22-.4.88.88,0,0,1,.31-.27.61.61,0,0,1,.69,0,1.32,1.32,0,0,1,.46.75,1.73,1.73,0,0,1-.15,1.18,4.28,4.28,0,0,1-.91,1.31,5.46,5.46,0,0,1-1.39,1.07,3,3,0,0,1-2.25.35,3.73,3.73,0,0,1-2-1.37,7.59,7.59,0,0,1-1.32-2.72,9.41,9.41,0,0,1-.36-3.31,6.82,6.82,0,0,1,.81-2.84A4.54,4.54,0,0,1,136,91.24Z" fill="#2c6e8c"></path><path d="M130.5,94.23a.91.91,0,0,1,.86-.05,1,1,0,0,1,.55.68,2,2,0,0,1,0,1.12,1,1,0,0,1-.48.63,1.14,1.14,0,0,1-.55.13l-.23,0a1,1,0,0,0-.36.12,1.71,1.71,0,0,0-.66.74,3.46,3.46,0,0,0-.3,1.35,5.57,5.57,0,0,0,.23,1.76l1.42,5a1.88,1.88,0,0,1,0,1.06,1.16,1.16,0,0,1-.55.72.7.7,0,0,1-.75,0,1.32,1.32,0,0,1-.51-.79L126.76,98a1.91,1.91,0,0,1,0-1.06,1.16,1.16,0,0,1,.54-.72.71.71,0,0,1,.76,0,1.34,1.34,0,0,1,.51.79l.08.27a4.17,4.17,0,0,1,.62-1.86A3.45,3.45,0,0,1,130.5,94.23Z" fill="#2c6e8c"></path><path d="M124.22,98.06a1.26,1.26,0,0,1,.52.79l2.53,8.91a1.84,1.84,0,0,1,0,1.06,1.14,1.14,0,0,1-.54.72.68.68,0,0,1-.74,0,1.29,1.29,0,0,1-.52-.76,5,5,0,0,1-.72,1.59,3.39,3.39,0,0,1-1.22,1.17,2.74,2.74,0,0,1-2.09.27,3.8,3.8,0,0,1-1.92-1.36,7.5,7.5,0,0,1-1.35-2.75,9.9,9.9,0,0,1-.38-3.29,7,7,0,0,1,.72-2.8,4,4,0,0,1,1.62-1.76,2.81,2.81,0,0,1,1.45-.36,3,3,0,0,1,1.34.36,1.92,1.92,0,0,1,0-1.08,1.16,1.16,0,0,1,.54-.72A.7.7,0,0,1,124.22,98.06Zm.2,9.16a5.44,5.44,0,0,0-.1-2.85,4,4,0,0,0-1.34-2.2,1.61,1.61,0,0,0-1.87-.14,2.72,2.72,0,0,0-1.29,1.86,5.55,5.55,0,0,0,.11,2.87,4,4,0,0,0,1.32,2.19,1.6,1.6,0,0,0,1.87.14,2.7,2.7,0,0,0,1.3-1.86" fill="#2c6e8c"></path><path d="M87.58,142.21l81-47.21a2.19,2.19,0,0,1,3.21,1.3h0a2.19,2.19,0,0,1-1,2.47L90,146.54a2.19,2.19,0,0,1-3.21-1.27l-.16-.55A2.19,2.19,0,0,1,87.58,142.21Z" fill="#fff"></path><path d="M170,86.8c-6.35,0-11.52-6.13-11.52-13.67S163.65,59.46,170,59.46s11.52,6.13,11.52,13.67S176.35,86.8,170,86.8Zm0-23.34c-4.14,0-7.52,4.34-7.52,9.67s3.37,9.67,7.52,9.67,7.52-4.34,7.52-9.67S174.14,63.46,170,63.46Z" fill="#fff"></path><path d="M191.92,78.37l-10.68-4.13c-2.65-1-4.26,3.09-1.61,4.11l10.68,4.13C193,83.51,194.58,79.4,191.92,78.37Z" fill="#fff"></path><path d="M128.39,131.54l-37.8,22a2.19,2.19,0,0,0-1,2.5l.16.55A2.19,2.19,0,0,0,93,157.9l37.65-22.25a2.43,2.43,0,0,0,1.19-2.23v-.05A2.27,2.27,0,0,0,128.39,131.54Z" fill="#fff"></path><path d="M172.64,106.38l-37.8,22a2.19,2.19,0,0,0-1,2.5l.16.55a2.19,2.19,0,0,0,3.21,1.27l37.65-22.25a2.43,2.43,0,0,0,1.19-2.23v-.05A2.27,2.27,0,0,0,172.64,106.38Z" fill="#fff"></path><path d="M133.55,142.09l-37.8,22a2.19,2.19,0,0,0-1,2.5l.16.55a2.19,2.19,0,0,0,3.21,1.27l37.65-22.25A2.43,2.43,0,0,0,137,144v-.05A2.27,2.27,0,0,0,133.55,142.09Z" fill="#fff"></path><path d="M184.37,97.87a24.52,24.52,0,0,1,7.14,10.47c2.51,6.92-3.76,18.24-3.76,18.24L178,118.87" fill="#ff8f6f"></path><path d="M185.45,189.44,188.1,188l-.67-3.78s-3.94.37-4.29,1.78" fill="#003b94"></path><path d="M184.45,189.38c-.6-.36-1.22-.69-1.83-1-1.53-.84-3.74-1.7-4.68-3.27a1.82,1.82,0,0,1,.12-2.05c1.39-1.68,4.42,1.08,6-.78.31-.37.45-6.19.45-6.19l5.9,1.59s1,11.7.89,12.43-2.14,1.42-2.14,1.42a5.23,5.23,0,0,1-1.7-.66c-.62-.45-.06-5.94-.84-5.17s-1.13,3.77-1.13,3.77A4.06,4.06,0,0,1,184.45,189.38Z" fill="#68e1fd"></path><path d="M174.16,195.09l2.65-1.46-.67-3.78s-3.94.37-4.29,1.78" fill="#003b94"></path><path d="M173.16,195c-.6-.36-1.22-.69-1.83-1-1.53-.84-3.74-1.7-4.68-3.27a1.82,1.82,0,0,1,.12-2.05c1.39-1.68,4.42,1.08,6-.78.31-.37.45-6.19.45-6.19l5.9,1.59s1,11.7.89,12.43-2.14,1.42-2.14,1.42a5.23,5.23,0,0,1-1.7-.66c-.62-.45-.06-5.94-.84-5.17s-1.13,3.77-1.13,3.77A4.06,4.06,0,0,1,173.16,195Z" fill="#68e1fd"></path><path d="M193.38,157l1.71,23.25s-2.76,3.82-12.05,1.7h0l-.09-15.68" fill="#ee6300"></path><path d="M182.62,161.65c.2,2,0,24.08,0,24.08s-2.57,4.81-13.75,0L169,167" fill="#ee6300"></path><path d="M194.25,164.72c-.76.52-1-2.18-1.82-1.72a45.32,45.32,0,0,1-9.17,4l-.07,0a.63.63,0,0,0-.85.31,48.45,48.45,0,0,1-6,1.36c-2.61.42-4.77-1.51-7.45-1.65,0-10.26,0-39.5,4.32-45.68L186.11,117c.06,1.07,6.28,8.27,6.13,17-.17,9.89,1.12,19.23,1.34,22.32C193.61,157,194.22,164.16,194.25,164.72Z" fill="#ee6300"></path><path d="M172,109.59l1.19,11.78s9.65.39,13.81-2.48v-10" fill="#ff8f6f"></path><path d="M155.58,98.68l1,1.34a32.32,32.32,0,0,1-1.39-3.36c-.27-.78,1-1.09,1.25-.31l.14.4q-.18-.62-.34-1.25a.65.65,0,0,1,1.25-.31,33.57,33.57,0,0,0,1,3.22,23,23,0,0,1-.46-2.84c-.08-.82,1.21-.79,1.29,0a20.45,20.45,0,0,0,.58,3.22q0-.55.1-1.1a.65.65,0,0,1,.27-.46c0-.14.08-.29.13-.43a.65.65,0,0,1,1.26.19l.08,4.87a5.8,5.8,0,0,0,.91,1.39,22.51,22.51,0,0,0-1.8,1.4,18.55,18.55,0,0,0-1.47,1.41q-.62-.77-1.2-1.58a.7.7,0,0,1-.12-.14q-1.73-2.56-3.58-5C154,98.65,155.09,98,155.58,98.68Z" fill="#ffb5a9"></path><path d="M176,96.54s-4.56,1.23-6.4,4.18a52.11,52.11,0,0,0-3.05,6.3l-3.36-5.23s-4.08,1.25-5.71,3.26c0,0,4.85,10.6,9.07,11.5s8.7-6.28,8.7-6.28.93,3,.75-.2" fill="#ff8f6f"></path><path d="M173.41,110.28a9.23,9.23,0,0,0,1.67-4.74c0-1.94-1.08-3.33-2.16-4.83a16.85,16.85,0,0,1-2.6-4.86c-.54-1.73-.83-3.53-1.2-5.31a.52.52,0,0,0-.09-.22c0-2.13.77-4.13,3.08-5,6-2.24,8.23,4.46,9,7.23s1,4.72,3.31,5.31,4.67,3.2,3.42,6.19.24,1.61,2.14,3.42,2.33,4.62-.05,6.34-15.23,3.34-16.69,2.5a2.45,2.45,0,0,1-1-1.51A6.71,6.71,0,0,1,173.41,110.28Z" fill="#007f68"></path><polyline points="312.22 87.42 302.9 92.39 328.34 116.34 350.77 123.39 358.24 113.26" fill="#ffe8bc"></polyline><polyline points="347.34 118.3 355.99 113.37 312.22 87.42 313.25 86.82 358.24 113.26 358.24 180.79 348.43 186.37 344.68 182.47" fill="#68e1fd"></polyline><polyline points="347.34 118.3 355.99 113.37 312.22 87.42 313.25 86.82 358.24 113.26 358.24 180.79 348.43 186.37 344.68 182.47" fill="#1371a5" opacity="0.42"></polyline><polygon points="302.9 92.39 348.43 118.93 348.43 186.37 302.18 158.73 302.9 92.39" fill="#68e1fd"></polygon><polygon points="346.71 114.5 343.93 116.26 343.93 130.64 342.16 128.38 340.92 129.78 340.92 114.55 343.52 112.69 346.71 114.5" fill="#e85858"></polygon><polyline points="284.19 83.63 274.87 88.61 300.31 112.56 322.75 119.61 330.21 109.48" fill="#ffe8bc"></polyline><polyline points="319.31 114.51 327.96 109.59 284.19 83.63 285.22 83.04 330.21 109.48 330.21 177 320.4 182.59 316.65 178.68" fill="#68e1fd"></polyline><polyline points="319.31 114.51 327.96 109.59 284.19 83.63 285.22 83.04 330.21 109.48 330.21 177 320.4 182.59 316.65 178.68" fill="#1371a5" opacity="0.42"></polyline><polygon points="274.87 88.61 320.4 115.15 320.4 182.59 274.15 154.95 274.87 88.61" fill="#68e1fd"></polygon><polygon points="318.68 110.72 315.9 112.48 315.9 126.86 314.13 124.6 312.89 126 312.89 110.77 315.49 108.91 318.68 110.72" fill="#e85858"></polygon></svg>