<svg xmlns="http://www.w3.org/2000/svg" viewBox="0 0 400 300" width="406" height="306" class="illustration styles_illustrationTablet__1DWOa"><g id="_557_transaction_flatline" data-name="#557_transaction_flatline"><polygon points="107.69 223.78 82.65 242.05 72.44 57.95 100.19 70.13 107.69 223.78" fill="#68e1fd"></polygon><path d="M82.65,242.55a.59.59,0,0,1-.22-.05.5.5,0,0,1-.28-.42L71.94,58a.5.5,0,0,1,.21-.44.51.51,0,0,1,.49,0l27.75,12.18a.52.52,0,0,1,.3.44l7.5,153.64a.51.51,0,0,1-.2.43l-25,18.27A.45.45,0,0,1,82.65,242.55ZM73,58.74,83.1,241.1l24.08-17.57L99.71,70.47Z" fill="#231f20"></path><polygon points="82.65 242.05 69.2 241.64 60.57 63.07 72.44 57.95 82.65 242.05" fill="#68e1fd"></polygon><path d="M82.65,242.55h0l-13.44-.41a.49.49,0,0,1-.49-.47L60.07,63.09a.5.5,0,0,1,.3-.48l11.87-5.12a.5.5,0,0,1,.46,0,.49.49,0,0,1,.24.39L83.15,242a.57.57,0,0,1-.14.38A.51.51,0,0,1,82.65,242.55Zm-13-1.39,12.44.37L72,58.69l-10.89,4.7Z" fill="#231f20"></path><polygon points="77.06 67.58 85.06 218.31 104.01 205 96.69 75.47 77.06 67.58" fill="#fff"></polygon><path d="M77.06,67.58l19.63,7.89L104,205l-19,13.31-8-150.73m0-1a1,1,0,0,0-.58.18,1,1,0,0,0-.41.87l8,150.73a1,1,0,0,0,.56.85,1,1,0,0,0,.44.1,1,1,0,0,0,.58-.18l19-13.31a1,1,0,0,0,.42-.88L97.69,75.42a1,1,0,0,0-.62-.87l-19.63-7.9a1,1,0,0,0-.38-.07Z" fill="#231f20"></path><path d="M95.94,228.42a2,2,0,0,1-1.16-.39c-1.14-.83-1.85-2.92-1.85-5.47,0-3.71,1.45-7.1,3.32-7.71a1.89,1.89,0,0,1,1.77.29c1.15.83,1.86,2.92,1.86,5.46,0,3.72-1.46,7.11-3.32,7.72A2,2,0,0,1,95.94,228.42Zm.92-12.67a.79.79,0,0,0-.3.05c-1.27.42-2.63,3.23-2.63,6.76,0,2.2.56,4,1.44,4.66a.94.94,0,0,0,.88.15c1.27-.42,2.63-3.24,2.63-6.77,0-2.19-.57-4-1.44-4.65A1,1,0,0,0,96.86,215.75Z" fill="#231f20"></path><path d="M91.58,70.34a.41.41,0,0,1-.19,0l-4.55-1.87a.5.5,0,1,1,.39-.93l4.54,1.88A.51.51,0,0,1,92,70,.49.49,0,0,1,91.58,70.34Z" fill="#231f20"></path><path d="M85.43,67.65a.52.52,0,0,1-.21,0l-.84-.38a.5.5,0,1,1,.41-.92l.84.38a.51.51,0,0,1,.25.67A.49.49,0,0,1,85.43,67.65Z" fill="#231f20"></path><path d="M119,132.17s9.3,2.32,14.49.06,6.6-7.16,12.47-7.62S167,123.49,167,123.49l.91-13.54s-9.48-10.89-19.07-11.79S124.27,111.42,119,113.33Z" fill="#fff"></path><path d="M127.49,133.73a40.28,40.28,0,0,1-8.64-1.07.5.5,0,0,1-.38-.49V113.33a.5.5,0,0,1,.33-.47c1.67-.6,4.44-2.54,7.65-4.78,6.67-4.66,15.81-11,22.46-10.42,9.67.91,19,11.51,19.39,12a.48.48,0,0,1,.12.36l-.9,13.54a.51.51,0,0,1-.47.47c-.16,0-15.29.68-21.08,1.12-3.24.25-5,1.89-7,3.79a18,18,0,0,1-5.27,3.79A15.79,15.79,0,0,1,127.49,133.73Zm-8-2c1.78.4,9.4,1.92,13.79,0a17.5,17.5,0,0,0,5-3.61c2.08-1.94,4.05-3.78,7.64-4,5.24-.41,18.1-1,20.66-1.11l.86-12.88c-1.18-1.32-9.93-10.66-18.6-11.47-6.27-.59-15.24,5.67-21.79,10.24a51.49,51.49,0,0,1-7.55,4.77Z" fill="#231f20"></path><path d="M91.35,145.59l29-7.33s-3.27-15.73,0-27.3H88.42s-3.38,6.55-2,18.17S91.35,145.59,91.35,145.59Z" fill="#231f20"></path><path d="M91.35,146.09a.48.48,0,0,1-.4-.2c-.15-.2-3.7-5.09-5-16.71S87.84,111,88,110.73a.52.52,0,0,1,.44-.27h31.9a.51.51,0,0,1,.4.2.5.5,0,0,1,.08.44c-3.2,11.32,0,26.91,0,27.06a.5.5,0,0,1-.37.59l-29,7.32Zm-2.61-34.63c-.59,1.34-3,7.59-1.85,17.61,1.14,9.82,3.94,14.78,4.68,16l28.17-7.13c-.5-2.66-2.76-16.08-.07-26.43Z" fill="#231f20"></path><rect x="141.98" y="106.23" width="54.6" height="34.52" rx="3.81" fill="#fff"></rect><path d="M192.77,106.23a3.8,3.8,0,0,1,3.81,3.81v26.89a3.81,3.81,0,0,1-3.81,3.82h-47a3.82,3.82,0,0,1-3.81-3.82V110a3.81,3.81,0,0,1,3.81-3.81h47m0-1h-47A4.82,4.82,0,0,0,141,110v26.89a4.82,4.82,0,0,0,4.81,4.82h47a4.82,4.82,0,0,0,4.81-4.82V110a4.82,4.82,0,0,0-4.81-4.81Z" fill="#231f20"></path><rect x="141.98" y="113.05" width="54.6" height="8.46" fill="#e6e7e8"></rect><path d="M135.66,126.31s12.76.64,18.16-.91,6.43-5.64,4.07-8.12-7.9-.11-14.44-1-7.79-1.36-7.79-1.36" fill="#fff"></path><path d="M141.73,126.94c-3.27,0-5.86-.12-6.09-.14a.5.5,0,0,1-.48-.52.48.48,0,0,1,.53-.47c.12,0,12.73.62,18-.89,2.56-.73,4.31-2.15,4.78-3.88a3.53,3.53,0,0,0-.95-3.41c-1.2-1.27-3.53-1.09-6.47-.86a34.46,34.46,0,0,1-7.67,0c-6.52-.9-7.84-1.36-7.89-1.38a.5.5,0,1,1,.34-.94,55,55,0,0,0,7.69,1.33,33.67,33.67,0,0,0,7.45,0c3.21-.24,5.74-.44,7.28,1.17a4.52,4.52,0,0,1,1.18,4.37c-.56,2.07-2.55,3.74-5.47,4.57S145.81,126.94,141.73,126.94Z" fill="#231f20"></path><path d="M180.23,137.94a6,6,0,1,1,6-6A6,6,0,0,1,180.23,137.94Zm0-11a5,5,0,1,0,5,5A5,5,0,0,0,180.23,126.94Z" fill="#e6e7e8"></path><path d="M187.75,137.94a6,6,0,1,1,6-6A6,6,0,0,1,187.75,137.94Zm0-11a5,5,0,1,0,5,5A5,5,0,0,0,187.75,126.94Z" fill="#e6e7e8"></path><path d="M150.47,131.68h-3.75a.5.5,0,0,1-.5-.5.5.5,0,0,1,.5-.5h3.75a.5.5,0,0,1,.5.5A.5.5,0,0,1,150.47,131.68Z" fill="#e6e7e8"></path><path d="M156.65,131.68h-3.76a.5.5,0,0,1-.5-.5.51.51,0,0,1,.5-.5h3.76a.51.51,0,0,1,.5.5A.5.5,0,0,1,156.65,131.68Z" fill="#e6e7e8"></path><path d="M162.82,131.68h-3.75a.5.5,0,0,1-.5-.5.5.5,0,0,1,.5-.5h3.75a.5.5,0,0,1,.5.5A.5.5,0,0,1,162.82,131.68Z" fill="#e6e7e8"></path><path d="M169,131.68h-3.75a.5.5,0,0,1-.5-.5.5.5,0,0,1,.5-.5H169a.51.51,0,0,1,.5.5A.5.5,0,0,1,169,131.68Z" fill="#e6e7e8"></path><path d="M159.07,136.56H146.72a.5.5,0,0,1-.5-.5.5.5,0,0,1,.5-.5h12.35a.5.5,0,0,1,.5.5A.5.5,0,0,1,159.07,136.56Z" fill="#e6e7e8"></path><polygon points="292.31 223.78 317.35 242.05 327.56 57.95 299.81 70.13 292.31 223.78" fill="#68e1fd"></polygon><path d="M317.35,242.55a.45.45,0,0,1-.29-.1L292,224.18a.51.51,0,0,1-.2-.43l7.5-153.64a.52.52,0,0,1,.3-.44l27.75-12.18a.51.51,0,0,1,.49,0,.5.5,0,0,1,.21.44l-10.21,184.1a.5.5,0,0,1-.28.42A.59.59,0,0,1,317.35,242.55Zm-24.53-19L316.9,241.1,327,58.74,300.29,70.47Z" fill="#231f20"></path><polygon points="317.35 242.05 330.8 241.64 339.43 63.07 327.56 57.95 317.35 242.05" fill="#68e1fd"></polygon><path d="M317.35,242.55a.51.51,0,0,1-.36-.15.57.57,0,0,1-.14-.38l10.21-184.1a.49.49,0,0,1,.24-.39.5.5,0,0,1,.46,0l11.87,5.12a.5.5,0,0,1,.3.48L331.3,241.67a.49.49,0,0,1-.49.47l-13.44.41ZM328,58.69,317.88,241.53l12.44-.37,8.59-177.77Z" fill="#231f20"></path><polygon points="322.94 67.58 314.94 218.31 295.99 205 303.31 75.47 322.94 67.58" fill="#fff"></polygon><path d="M322.94,67.58l-8,150.73L296,205l7.32-129.53,19.63-7.89m0-1a1,1,0,0,0-.38.07l-19.63,7.9a1,1,0,0,0-.62.87L295,204.94a1,1,0,0,0,.42.88l18.95,13.31a1,1,0,0,0,.58.18,1,1,0,0,0,.44-.1,1,1,0,0,0,.56-.85l8-150.73a1,1,0,0,0-.41-.87,1,1,0,0,0-.58-.18Zm0,2Z" fill="#231f20"></path><path d="M304.06,228.42a2,2,0,0,1-.62-.1c-1.86-.61-3.32-4-3.32-7.72,0-2.54.71-4.63,1.86-5.46a1.89,1.89,0,0,1,1.77-.29c1.87.61,3.32,4,3.32,7.71,0,2.55-.71,4.64-1.85,5.47A2,2,0,0,1,304.06,228.42Zm-.92-12.67a1,1,0,0,0-.58.2c-.87.63-1.44,2.46-1.44,4.65,0,3.53,1.36,6.35,2.63,6.77a.94.94,0,0,0,.88-.15c.88-.63,1.44-2.46,1.44-4.66,0-3.53-1.36-6.34-2.63-6.76A.79.79,0,0,0,303.14,215.75Z" fill="#231f20"></path><path d="M308.42,70.34A.49.49,0,0,1,308,70a.51.51,0,0,1,.27-.65l4.54-1.88a.5.5,0,0,1,.39.93l-4.55,1.87A.41.41,0,0,1,308.42,70.34Z" fill="#231f20"></path><path d="M314.57,67.65a.49.49,0,0,1-.45-.29.51.51,0,0,1,.25-.67l.84-.38a.5.5,0,1,1,.41.92l-.84.38A.52.52,0,0,1,314.57,67.65Z" fill="#231f20"></path><rect x="208.81" y="142.94" width="66.33" height="64.72" fill="#fff"></rect><path d="M275.14,142.94v64.72H208.81V142.94h66.33m0-1H208.81a1,1,0,0,0-1,1v64.72a1,1,0,0,0,1,1h66.33a1,1,0,0,0,1-1V142.94a1,1,0,0,0-1-1Z" fill="#231f20"></path><path d="M269.9,107c-2.18-2.53-5.57-3.63-8.85-4.23s-6.68-.81-9.78-2.06c-2.26-.91-4.38-2.37-6.81-2.57s-5.27,1.71-4.79,4.1a5.48,5.48,0,0,0,2.45,3,81.48,81.48,0,0,0,6.83,4.52c-2.1-.34-4.52-.58-6.1.84-1.34,1.21-1.57,3.19-1.61,5a45.65,45.65,0,0,0,2.51,16,8.92,8.92,0,0,0,2.83,4.52c1.66,1.18,3.84,1.21,5.87,1.2l32-.22c1.34,0,.45-21-1.4-23.11-1.67-1.88-3.44-1.37-5.7-1.61C273.4,111.92,272.29,109.77,269.9,107Z" fill="#fff"></path><path d="M251.9,137.79c-1.75,0-3.94-.1-5.61-1.29a9.32,9.32,0,0,1-3-4.76,45.75,45.75,0,0,1-2.54-16.15c0-1.89.29-4,1.77-5.35a5.74,5.74,0,0,1,4.25-1.22c-1.69-1.06-3.34-2.19-4.94-3.37a5.85,5.85,0,0,1-2.64-3.32,3.34,3.34,0,0,1,.87-2.93,5.56,5.56,0,0,1,4.45-1.76,13.9,13.9,0,0,1,4.95,1.68c.66.32,1.33.65,2,.92a31.39,31.39,0,0,0,7,1.6c.9.13,1.79.27,2.69.43,4.33.79,7.24,2.18,9.14,4.4.37.42.71.84,1,1.23,1.78,2.18,2.95,3.61,6.11,3.95.52.06,1,.07,1.49.09,1.6,0,3.12.09,4.53,1.69,1.89,2.12,2.83,20.9,1.71,23.42a.74.74,0,0,1-.67.52l-32,.22ZM246.3,110a4.54,4.54,0,0,0-3.12,1c-1.2,1.09-1.4,3-1.44,4.63a44.91,44.91,0,0,0,2.48,15.8,8.44,8.44,0,0,0,2.66,4.27c1.46,1,3.38,1.13,5.57,1.11h.11l31.71-.22c.83-2,.11-20.39-1.57-22.28-1.14-1.27-2.26-1.3-3.82-1.35-.5,0-1,0-1.57-.09-3.56-.39-5-2.12-6.77-4.31-.32-.39-.66-.8-1-1.22-1.75-2-4.47-3.32-8.56-4.07-.88-.16-1.77-.29-2.66-.42a31.68,31.68,0,0,1-7.21-1.66c-.71-.29-1.41-.63-2.08-1a13.1,13.1,0,0,0-4.59-1.59,4.61,4.61,0,0,0-3.63,1.43,2.37,2.37,0,0,0-.63,2.07,5.07,5.07,0,0,0,2.25,2.72c2.18,1.6,4.47,3.11,6.8,4.49a.5.5,0,0,1-.34.92A17.07,17.07,0,0,0,246.3,110Z" fill="#231f20"></path><path d="M257.93,149.24a.49.49,0,0,1-.5-.49c0-.4-.65-39.2-15.45-39.2s-15.45,38.8-15.45,39.2a.5.5,0,0,1-.5.49h0a.5.5,0,0,1-.49-.51c0-1.64.67-40.18,16.45-40.18,6.68,0,11.48,6.81,14.26,20.24a121.69,121.69,0,0,1,2.19,19.94.5.5,0,0,1-.5.51Z" fill="#231f20"></path><path d="M307.69,144.39l-26.57-6.13s3.27-15.73,0-27.3l29.49-1.2s3.39,6.55,2,18.16S307.69,144.39,307.69,144.39Z" fill="#231f20"></path><path d="M307.69,144.89h-.11L281,138.75a.5.5,0,0,1-.38-.59c0-.15,3.21-15.75,0-27.06a.5.5,0,0,1,.08-.43.52.52,0,0,1,.38-.21l29.49-1.2a.55.55,0,0,1,.47.27c.14.28,3.44,6.82,2.08,18.45s-4.9,16.5-5.05,16.71A.54.54,0,0,1,307.69,144.89Zm-26-7,25.76,5.94c.74-1.15,3.54-6.11,4.69-15.95,1.16-10-1.25-16.23-1.85-17.59l-28.53,1.16C284.46,121.78,282.2,135.19,281.7,137.88Z" fill="#231f20"></path><path d="M261.94,133.36l-.14,0C252.45,130.52,251,125,251,124.77a.5.5,0,0,1,.36-.6.51.51,0,0,1,.61.37s1.39,5.21,10.15,7.84a.5.5,0,0,1,.33.62A.49.49,0,0,1,261.94,133.36Z" fill="#231f20"></path><path d="M242.77,109.86a54.63,54.63,0,0,1,9-.48c2,.05,4.41.54,5,2.44a3.44,3.44,0,0,1-1,3.3,9.57,9.57,0,0,1-3,1.9c1.79,0,4,.34,4.61,2a3.07,3.07,0,0,1-1.09,3.28,9.26,9.26,0,0,1-3.3,1.54c2,.36,4.46,1.2,4.62,3.22s-1.94,3.17-3.78,3.76c.56,1,2.21.8,3.1,1.59a2.2,2.2,0,0,1-.21,3.08,5.49,5.49,0,0,1-3.17,1.22,35.26,35.26,0,0,1-7,.19,6.07,6.07,0,0,1-4.06-1.37c-1-1.06-.89-3.2.51-3.63a4.34,4.34,0,0,1-2.71-7.46,3.94,3.94,0,0,1-2.41-3.14,4.26,4.26,0,0,1,1.54-3.58C234,115,238.89,110.4,242.77,109.86Z" fill="#fff"></path><path d="M249.33,137.5q-1.35,0-2.79-.09a6.45,6.45,0,0,1-4.39-1.53,3.12,3.12,0,0,1-.71-2.87,2.65,2.65,0,0,1,.39-.83,4.83,4.83,0,0,1-2.32-7.58,4.41,4.41,0,0,1-2.1-3.24,4.56,4.56,0,0,1,1.21-3.52c-2-1.22-2.21-2.64-2-3.65.41-2.4,3.56-4.47,6.12-4.82a54.52,54.52,0,0,1,9.12-.49c3,.08,4.92,1.05,5.48,2.78a3.89,3.89,0,0,1-1.07,3.8,6.79,6.79,0,0,1-1.57,1.21,3.91,3.91,0,0,1,3.25,2.19,3.61,3.61,0,0,1-1.23,3.83,7.05,7.05,0,0,1-1.85,1.08c2.57.83,3.25,2.18,3.34,3.26.13,1.62-1.11,3.08-3.34,4a4.35,4.35,0,0,0,.84.28,3.91,3.91,0,0,1,1.65.75,2.19,2.19,0,0,1,.71,1.62,3.05,3.05,0,0,1-.9,2.19,6,6,0,0,1-3.46,1.36A31.56,31.56,0,0,1,249.33,137.5Zm-6.49-27.14c-2.22.3-4.94,2.08-5.27,4-.2,1.12.51,2.11,2.1,2.93a.48.48,0,0,1,.26.38.5.5,0,0,1-.16.43,3.76,3.76,0,0,0-1.37,3.15,3.4,3.4,0,0,0,2.1,2.73.51.51,0,0,1,.31.37.52.52,0,0,1-.15.46,3.85,3.85,0,0,0,2.4,6.61.5.5,0,0,1,.11,1,1.15,1.15,0,0,0-.76.87,2.17,2.17,0,0,0,.46,1.93,5.53,5.53,0,0,0,3.73,1.22,34,34,0,0,0,6.94-.18,5.06,5.06,0,0,0,2.89-1.09,2,2,0,0,0,.6-1.45,1.24,1.24,0,0,0-.37-.89,3.17,3.17,0,0,0-1.25-.53,2.84,2.84,0,0,1-2-1.2.54.54,0,0,1,0-.43.51.51,0,0,1,.31-.28c.85-.28,3.59-1.31,3.43-3.25-.13-1.69-2.36-2.44-4.21-2.77a.49.49,0,0,1-.41-.46.5.5,0,0,1,.35-.51,8.84,8.84,0,0,0,3.13-1.44,2.62,2.62,0,0,0,1-2.72c-.41-1.09-1.77-1.65-4.16-1.69a.49.49,0,0,1-.48-.4.5.5,0,0,1,.28-.56,8.88,8.88,0,0,0,2.89-1.79,2.91,2.91,0,0,0,.84-2.8c-.53-1.64-2.77-2-4.56-2.09a53.55,53.55,0,0,0-8.95.48Zm-.07-.5h0Z" fill="#231f20"></path><path d="M241.75,118.2a.5.5,0,0,1,0-1l11.08-.69a.5.5,0,0,1,.53.47.52.52,0,0,1-.47.53l-11.07.68Z" fill="#231f20"></path><path d="M243.25,124.87a.49.49,0,0,1-.49-.47.5.5,0,0,1,.47-.53l9.79-.52a.49.49,0,0,1,.53.47.5.5,0,0,1-.48.52l-9.79.53Z" fill="#231f20"></path><path d="M245.38,132a.5.5,0,0,1,0-1l8.51-.67a.49.49,0,0,1,.54.46.5.5,0,0,1-.46.54l-8.51.66Z" fill="#231f20"></path><path d="M230.07,160.21H217.43a.5.5,0,0,1-.5-.5.51.51,0,0,1,.5-.5h12.64a.51.51,0,0,1,.5.5A.5.5,0,0,1,230.07,160.21Z" fill="#e6e7e8"></path></g></svg>