<?xml version="1.0" encoding="iso-8859-1"?>
<!-- Generator: Adobe Illustrator 19.0.0, SVG Export Plug-In . SVG Version: 6.00 Build 0)  -->
<svg version="1.1" id="Layer_1" xmlns="http://www.w3.org/2000/svg" xmlns:xlink="http://www.w3.org/1999/xlink" x="0px" y="0px"
	 viewBox="0 0 512 512" style="enable-background:new 0 0 512 512;" xml:space="preserve">
<rect x="4" y="65.048" style="fill:#FFFFFF;" width="504" height="381.904"/>
<g>
	<path style="fill:#AAC1CE;" d="M504,69.048v373.904H8V69.048H504 M512,61.048H0v389.904h512V61.048z"/>
	<rect x="3" y="126.84" style="fill:#AAC1CE;" width="505.84" height="8"/>
</g>
<circle style="fill:#E04F5F;" cx="48.08" cy="98.504" r="12.584"/>
<circle style="fill:#25B6D2;" cx="89.312" cy="98.504" r="12.584"/>
<circle style="fill:#32BEA6;" cx="130.568" cy="98.504" r="12.584"/>
<rect x="404.816" y="352.08" style="fill:#6B6B6B;" width="34.568" height="9.592"/>
<rect x="212.776" y="352.08" style="fill:#E04F5F;" width="51.856" height="9.592"/>
<rect x="91.768" y="352.08" style="fill:#AAC1CE;" width="69.152" height="9.592"/>
<rect x="91.768" y="282.88" style="fill:#25B6D2;" width="69.152" height="9.592"/>
<rect x="195.504" y="282.88" style="fill:#6B6B6B;" width="69.144" height="9.592"/>
<rect x="281.92" y="282.88" style="fill:#AAC1CE;" width="69.152" height="9.592"/>
<rect x="385.68" y="282.88" style="fill:#E04F5F;" width="69.152" height="9.592"/>
<rect x="333.792" y="317.488" style="fill:#25B6D2;" width="34.576" height="9.592"/>
<rect x="247.36" y="317.488" style="fill:#AAC1CE;" width="34.568" height="9.592"/>
<rect x="111.36" y="317.488" style="fill:#E04F5F;" width="65" height="9.592"/>
<rect x="91.768" y="386.64" style="fill:#6B6B6B;" width="172.864" height="9.592"/>
<rect x="316.496" y="386.64" style="fill:#25B6D2;" width="69.152" height="9.592"/>
<rect x="333.792" y="248.32" style="fill:#E04F5F;" width="34.576" height="9.6"/>
<rect x="247.36" y="248.32" style="fill:#25B6D2;" width="34.568" height="9.6"/>
<rect x="91.768" y="248.32" style="fill:#E04F5F;" width="103.72" height="9.6"/>
<rect x="281.92" y="179.184" style="fill:#6B6B6B;" width="86.44" height="9.6"/>
<g>
	<rect x="212.776" y="179.184" style="fill:#E04F5F;" width="34.584" height="9.6"/>
	<rect x="420.24" y="179.184" style="fill:#E04F5F;" width="34.568" height="9.6"/>
</g>
<rect x="74.48" y="179.184" style="fill:#AAC1CE;" width="103.72" height="9.6"/>
<rect x="299.2" y="213.76" style="fill:#25B6D2;" width="69.152" height="9.6"/>
<rect x="230.056" y="213.76" style="fill:#AAC1CE;" width="34.576" height="9.6"/>
<rect x="57.2" y="213.76" style="fill:#6B6B6B;" width="103.712" height="9.6"/>
<g>
</g>
<g>
</g>
<g>
</g>
<g>
</g>
<g>
</g>
<g>
</g>
<g>
</g>
<g>
</g>
<g>
</g>
<g>
</g>
<g>
</g>
<g>
</g>
<g>
</g>
<g>
</g>
<g>
</g>
</svg>
